<!--
  ICONS SVG SPRITE
  A collection of custom SVG icons for the pneumonia site.
  Usage: <svg><use href="#icon-name"></use></svg>
-->

<svg xmlns="http://www.w3.org/2000/svg" style="display: none;">
  <defs>
    <!-- Symptom Icons -->
    <symbol id="icon-cough" viewBox="0 0 24 24">
      <path d="M12 2C6.48 2 2 6.48 2 12s4.48 10 10 10 10-4.48 10-10S17.52 2 12 2zm-2 15l-5-5 1.41-1.41L10 14.17l7.59-7.59L19 8l-9 9z" fill="currentColor"/>
      <circle cx="8" cy="8" r="1.5" fill="currentColor"/>
      <circle cx="16" cy="8" r="1.5" fill="currentColor"/>
    </symbol>
    
    <symbol id="icon-fever" viewBox="0 0 24 24">
      <path d="M15 13V5c0-1.66-1.34-3-3-3S9 3.34 9 5v8c-1.21.91-2 2.37-2 4 0 2.76 2.24 5 5 5s5-2.24 5-5c0-1.63-.79-3.09-2-4zm-4-8c0-.55.45-1 1-1s1 .45 1 1h-1v1h-1V5zm2 11c-1.1 0-2-.9-2-2 0-.55.22-1.05.59-1.41L12 10l1.41 2.59c.37.36.59.86.59 1.41 0 1.1-.9 2-2 2z" fill="currentColor"/>
    </symbol>
    
    <symbol id="icon-breath" viewBox="0 0 24 24">
      <path d="M12 2C6.48 2 2 6.48 2 12s4.48 10 10 10 10-4.48 10-10S17.52 2 12 2zm0 18c-4.41 0-8-3.59-8-8s3.59-8 8-8 8 3.59 8 8-3.59 8-8 8zm.31-8.86c-1.77-.45-2.34-.94-2.34-1.67 0-.84.79-1.43 2.1-1.43 1.38 0 1.9.66 1.94 1.64h1.71c-.05-1.34-.87-2.57-2.49-2.97V5H10.9v1.69c-1.51.32-2.72 1.3-2.72 2.81 0 1.79 1.49 2.69 3.66 3.21 1.95.46 2.34 1.15 2.34 1.87 0 .53-.39 1.39-2.1 1.39-1.6 0-2.23-.72-2.32-1.64H8.04c.1 1.7 1.36 2.66 2.86 2.97V19h2.34v-1.67c1.52-.29 2.72-1.16 2.73-2.77-.01-2.2-1.9-2.96-3.66-3.42z" fill="currentColor"/>
    </symbol>
    
    <symbol id="icon-fatigue" viewBox="0 0 24 24">
      <path d="M12 2C6.48 2 2 6.48 2 12s4.48 10 10 10 10-4.48 10-10S17.52 2 12 2zm-2 15l-5-5 1.41-1.41L10 14.17l7.59-7.59L19 8l-9 9z" fill="currentColor"/>
    </symbol>
    
    <!-- Medical Icons -->
    <symbol id="icon-stethoscope" viewBox="0 0 24 24">
      <path d="M19 14c1.49-1.46 3-3.21 3-5.5 0-2.89-2.11-5.5-5-5.5s-5 2.61-5 5.5c0 2.29 1.51 4.04 3 5.5l-1 1c-1.51-1.46-3-3.21-3-5.5 0-3.87 3.13-7 7-7s7 3.13 7 7c0 2.29-1.51 4.04-3 5.5l-1-1z" fill="currentColor"/>
      <path d="M7 4v6h2V4h2v6h2V4h2v6c0 2.21-1.79 4-4 4s-4-1.79-4-4V4h2z" fill="currentColor"/>
    </symbol>
    
    <symbol id="icon-xray" viewBox="0 0 24 24">
      <path d="M19 3H5c-1.1 0-2 .9-2 2v14c0 1.1.9 2 2 2h14c1.1 0 2-.9 2-2V5c0-1.1-.9-2-2-2zm0 16H5V5h14v14z" fill="currentColor"/>
      <path d="M7 7h10v2H7zm0 4h10v2H7zm0 4h7v2H7z" fill="currentColor"/>
    </symbol>
    
    <symbol id="icon-lab" viewBox="0 0 24 24">
      <path d="M19.36 4.04l-1.6 1.6c-.19.19-.19.51 0 .7l1.6 1.6c.19.19.51.19.7 0l1.6-1.6c.19-.19.19-.51 0-.7l-1.6-1.6c-.19-.19-.51-.19-.7 0zM20.66 12.99l-1.6 1.6c-.19.19-.19.51 0 .7l1.6 1.6c.19.19.51.19.7 0l1.6-1.6c.19-.19.19-.51 0-.7l-1.6-1.6c-.19-.19-.51-.19-.7 0zM16.34 12.99l-1.6 1.6c-.19.19-.19.51 0 .7l1.6 1.6c.19.19.51.19.7 0l1.6-1.6c.19-.19.19-.51 0-.7l-1.6-1.6c-.19-.19-.51-.19-.7 0zM15.64 4.04l-1.6 1.6c-.19.19-.19.51 0 .7l1.6 1.6c.19.19.51.19.7 0l1.6-1.6c.19-.19.19-.51 0-.7l-1.6-1.6c-.19-.19-.51-.19-.7 0zM9.5 3H4.5c-.83 0-1.5.67-1.5 1.5v15c0 .83.67 1.5 1.5 1.5h5c.83 0 1.5-.67 1.5-1.5v-15c0-.83-.67-1.5-1.5-1.5zM9 18H5V6h4v12z" fill="currentColor"/>
    </symbol>
    
    <!-- Treatment Icons -->
    <symbol id="icon-pill" viewBox="0 0 24 24">
      <path d="M17 3H7c-1.1 0-2 .9-2 2v14c0 1.1.9 2 2 2h10c1.1 0 2-.9 2-2V5c0-1.1-.9-2-2-2zM12 18c-2.21 0-4-1.79-4-4s1.79-4 4-4 4 1.79 4 4-1.79 4-4 4z" fill="currentColor"/>
    </symbol>
    
    <symbol id="icon-vaccine" viewBox="0 0 24 24">
      <path d="M19.14 12.94c.04-.3.06-.61.06-.94 0-.32-.02-.64-.06-.94l2.03-1.58c.18-.14.23-.41.12-.61l-1.92-3.32c-.12-.22-.37-.29-.59-.22l-2.39.96c-.5-.38-1.03-.7-1.62-.94L14.4 2.81c-.04-.24-.24-.41-.48-.41h-3.84c-.24 0-.43.17-.47.41l-.36 2.54c-.59.24-1.13.57-1.62.94l-2.39-.96c-.22-.08-.47 0-.59.22L2.74 8.87c-.12.21-.08.47.12.61l2.03 1.58c-.04.3-.07.63-.07.94s.02.64.06.94l-2.03 1.58c-.18.14-.23.41-.12.61l1.92 3.32c.12.22.37.29.59.22l2.39-.96c.5.38 1.03.7 1.62.94l.36 2.54c.05.24.24.41.48.41h3.84c.24 0 .44-.17.47-.41l.36-2.54c.59-.24 1.13-.56 1.62-.94l2.39.96c.22.08.47 0 .59-.22l1.92-3.32c.12-.22.07-.47-.12-.61l-2.01-1.58zM12 15.6c-1.98 0-3.6-1.62-3.6-3.6s1.62-3.6 3.6-3.6 3.6 1.62 3.6 3.6-1.62 3.6-3.6 3.6z" fill="currentColor"/>
    </symbol>
  </defs>
</svg>

