<!--
  ENHANCED LUNGS SVG ASSET
  A more detailed, animated-ready SVG illustration of human lungs.
  
  This is an improved version with:
  - More anatomical detail
  - Better gradient definitions
  - Additional visual elements (bronchi, alveoli representation)
  - Optimized for GSAP animations
  
  Usage:
  - Replace the SVG in index.html with this one
  - Or use as reference for creating your own custom version
-->

<svg viewBox="0 0 400 400" xmlns="http://www.w3.org/2000/svg" role="img" aria-labelledby="lungs-title lungs-desc">
  <title id="lungs-title">Human Lungs Illustration</title>
  <desc id="lungs-desc">An animated SVG illustration of human lungs that demonstrates breathing through subtle scale animations.</desc>
  
  <defs>
    <!-- Primary lung gradient -->
    <linearGradient id="lungGradient" x1="0%" y1="0%" x2="100%" y2="100%">
      <stop offset="0%" stop-color="#8dd3ff" stop-opacity="1"/>
      <stop offset="50%" stop-color="#7be7ff" stop-opacity="0.95"/>
      <stop offset="100%" stop-color="#7b61ff" stop-opacity="0.85"/>
    </linearGradient>
    
    <!-- Secondary gradient for depth -->
    <radialGradient id="lungDepth" cx="50%" cy="50%">
      <stop offset="0%" stop-color="#a8e8ff" stop-opacity="0.8"/>
      <stop offset="100%" stop-color="#6b4fff" stop-opacity="0.6"/>
    </radialGradient>
    
    <!-- Glow filter for depth -->
    <filter id="lungGlow" x="-50%" y="-50%" width="200%" height="200%">
      <feGaussianBlur in="SourceGraphic" stdDeviation="5" result="blur"/>
      <feColorMatrix in="blur" mode="matrix" values="1 0 0 0 0  0 1 0 0 0  0 0 1 0 0  0 0 0 0.7 0" result="glow"/>
      <feBlend in="SourceGraphic" in2="glow" mode="screen"/>
    </filter>
    
    <!-- Subtle shadow filter -->
    <filter id="lungShadow" x="-50%" y="-50%" width="200%" height="200%">
      <feGaussianBlur in="SourceAlpha" stdDeviation="3" result="blur"/>
      <feOffset in="blur" dx="0" dy="2" result="offset"/>
      <feComponentTransfer in="offset" result="shadow">
        <feFuncA type="linear" slope="0.3"/>
      </feComponentTransfer>
      <feMerge>
        <feMergeNode in="shadow"/>
        <feMergeNode in="SourceGraphic"/>
      </feMerge>
    </filter>
  </defs>
  
  <!-- Left Lung -->
  <g class="lung left" transform-origin="140 200">
    <!-- Main lung body -->
    <ellipse cx="140" cy="200" rx="100" ry="140" fill="url(#lungGradient)" filter="url(#lungGlow)" opacity="0.9"/>
    <!-- Depth overlay -->
    <ellipse cx="140" cy="180" rx="80" ry="100" fill="url(#lungDepth)" opacity="0.4"/>
    
    <!-- Bronchi (airways) - more detailed -->
    <g opacity="0.7">
      <path d="M 140 120 Q 130 100 120 80 Q 110 60 105 50" stroke="#7be7ff" stroke-width="2.5" fill="none" stroke-linecap="round"/>
      <path d="M 140 120 Q 150 100 160 80 Q 170 60 175 50" stroke="#7be7ff" stroke-width="2.5" fill="none" stroke-linecap="round"/>
      <path d="M 140 140 Q 125 130 110 120" stroke="#7be7ff" stroke-width="2" fill="none" stroke-linecap="round"/>
      <path d="M 140 140 Q 155 130 170 120" stroke="#7be7ff" stroke-width="2" fill="none" stroke-linecap="round"/>
    </g>
    
    <!-- Alveoli representation (small circles) -->
    <g opacity="0.5">
      <circle cx="100" cy="220" r="3" fill="#9be7ff"/>
      <circle cx="120" cy="240" r="2.5" fill="#9be7ff"/>
      <circle cx="160" cy="230" r="3" fill="#9be7ff"/>
      <circle cx="110" cy="260" r="2" fill="#9be7ff"/>
      <circle cx="150" cy="250" r="2.5" fill="#9be7ff"/>
    </g>
  </g>
  
  <!-- Right Lung -->
  <g class="lung right" transform-origin="260 200">
    <!-- Main lung body -->
    <ellipse cx="260" cy="200" rx="100" ry="140" fill="url(#lungGradient)" filter="url(#lungGlow)" opacity="0.9"/>
    <!-- Depth overlay -->
    <ellipse cx="260" cy="180" rx="80" ry="100" fill="url(#lungDepth)" opacity="0.4"/>
    
    <!-- Bronchi (airways) - more detailed -->
    <g opacity="0.7">
      <path d="M 260 120 Q 250 100 240 80 Q 230 60 225 50" stroke="#7be7ff" stroke-width="2.5" fill="none" stroke-linecap="round"/>
      <path d="M 260 120 Q 270 100 280 80 Q 290 60 295 50" stroke="#7be7ff" stroke-width="2.5" fill="none" stroke-linecap="round"/>
      <path d="M 260 140 Q 245 130 230 120" stroke="#7be7ff" stroke-width="2" fill="none" stroke-linecap="round"/>
      <path d="M 260 140 Q 275 130 290 120" stroke="#7be7ff" stroke-width="2" fill="none" stroke-linecap="round"/>
    </g>
    
    <!-- Alveoli representation (small circles) -->
    <g opacity="0.5">
      <circle cx="220" cy="220" r="3" fill="#9be7ff"/>
      <circle cx="240" cy="240" r="2.5" fill="#9be7ff"/>
      <circle cx="280" cy="230" r="3" fill="#9be7ff"/>
      <circle cx="230" cy="260" r="2" fill="#9be7ff"/>
      <circle cx="270" cy="250" r="2.5" fill="#9be7ff"/>
    </g>
  </g>
  
  <!-- Trachea (windpipe) connecting to both lungs -->
  <g opacity="0.7">
    <rect x="190" y="60" width="20" height="220" rx="10" fill="#ffe9f2" filter="url(#lungShadow)"/>
    <!-- Tracheal rings (cartilage) -->
    <line x1="195" y1="80" x2="195" y2="80" stroke="#ffc4d6" stroke-width="1" stroke-dasharray="2,3"/>
    <line x1="195" y1="100" x2="195" y2="100" stroke="#ffc4d6" stroke-width="1" stroke-dasharray="2,3"/>
    <line x1="195" y1="120" x2="195" y2="120" stroke="#ffc4d6" stroke-width="1" stroke-dasharray="2,3"/>
    <line x1="195" y1="140" x2="195" y2="140" stroke="#ffc4d6" stroke-width="1" stroke-dasharray="2,3"/>
    <line x1="195" y1="160" x2="195" y2="160" stroke="#ffc4d6" stroke-width="1" stroke-dasharray="2,3"/>
    <line x1="195" y1="180" x2="195" y2="180" stroke="#ffc4d6" stroke-width="1" stroke-dasharray="2,3"/>
    <line x1="195" y1="200" x2="195" y2="200" stroke="#ffc4d6" stroke-width="1" stroke-dasharray="2,3"/>
    <line x1="195" y1="220" x2="195" y2="220" stroke="#ffc4d6" stroke-width="1" stroke-dasharray="2,3"/>
    <line x1="195" y1="240" x2="195" y2="240" stroke="#ffc4d6" stroke-width="1" stroke-dasharray="2,3"/>
    <line x1="195" y1="260" x2="195" y2="260" stroke="#ffc4d6" stroke-width="1" stroke-dasharray="2,3"/>
  </g>
  
  <!-- Decorative bubbles (representing air/oxygen) -->
  <g id="bubbles" opacity="0.75">
    <circle class="b" cx="70" cy="320" r="6" fill="#9be7ff" opacity="0.9"/>
    <circle class="b" cx="330" cy="80" r="4" fill="#b7adff" opacity="0.85"/>
    <circle class="b" cx="40" cy="60" r="5" fill="#b9f1ff" opacity="0.75"/>
    <circle class="b" cx="360" cy="260" r="7" fill="#cfc3ff" opacity="0.65"/>
    <circle class="b" cx="200" cy="350" r="5" fill="#a8d8ff" opacity="0.7"/>
    <circle class="b" cx="50" cy="200" r="4" fill="#c5d9ff" opacity="0.6"/>
    <circle class="b" cx="350" cy="200" r="5" fill="#d4c9ff" opacity="0.65"/>
  </g>
</svg>

